<?xml version="1.0" encoding="utf-8"?>
<!-- Generator: Adobe Illustrator 23.1.1, SVG Export Plug-In . SVG Version: 6.00 Build 0)  -->
<svg version="1.1" xmlns="http://www.w3.org/2000/svg" xmlns:xlink="http://www.w3.org/1999/xlink" x="0px" y="0px"
	 viewBox="0 0 679 148.5" style="enable-background:new 0 0 679 148.5;" xml:space="preserve">
<style type="text/css">
	.st0{display:none;}
	.st1{display:inline;}
	.st2{fill:#FFFFFF;}
	.st3{fill:#253D86;}
	.st4{fill:#E02E27;}
</style>
<g id="Grid">
</g>
<g id="Fonts" class="st0">
</g>
<g id="Logo">
	<g>
		<g>
			<g>
				<path class="st3" d="M189.4,66.5c-2.9-2.7-6.1-3.6-10-3.6c-4.7,0-7.4,1.5-7.4,4c0,2.6,2.4,4.1,7.5,4.4
					c7.6,0.5,17.3,2.2,17.3,12.9c0,7.1-5.8,13.3-17.3,13.3c-6.4,0-12.8-1.1-18.6-7.2l4.9-7.1c2.9,3.2,9.4,5.6,13.9,5.6
					c3.8,0.1,7.3-1.9,7.3-4.8c0-2.8-2.3-3.9-8-4.3c-7.6-0.6-16.7-3.4-16.7-12.5c0-9.3,9.7-12.6,17-12.6c6.3,0,11,1.2,15.7,5.3
					L189.4,66.5z"/>
				<path class="st3" d="M211.8,79.5c0.7,5,5,8.6,12,8.6c3.7,0,8.5-1.4,10.8-3.8l6.4,6.3c-4.3,4.4-11.2,6.5-17.3,6.5
					c-13.9,0-22.2-8.6-22.2-21.5c0-12.3,8.3-21.1,21.4-21.1c13.5,0,21.9,8.3,20.4,24.9H211.8z M233.7,71.2
					c-0.7-5.2-4.7-7.9-10.5-7.9c-5.4,0-9.8,2.6-11.3,7.9H233.7z"/>
				<path class="st3" d="M260.8,38.9v57.2h-9.9V38.9H260.8z"/>
				<path class="st3" d="M279.5,38.9v57.2h-9.9V38.9H279.5z"/>
				<path class="st4" d="M330.1,38.9v57.2h-9.3l-0.7-5.6c-3.1,4.8-8.1,6.5-13,6.5c-11.9,0-20.8-7.9-20.8-21.1
					c0-13.9,8.8-21.1,20.5-21.1c4.3,0,10.9,2.3,13.3,6.5V38.9H330.1z M296.3,75.9c0,7,5.1,11.9,11.5,11.9c6.3,0,11.7-4.6,11.7-11.9
					c0-7-5.4-11.8-11.7-11.8C301.4,64.1,296.3,68.6,296.3,75.9z"/>
				<path class="st4" d="M348.2,79.5c0.7,5,5,8.6,12,8.6c3.7,0,8.5-1.4,10.8-3.8l6.4,6.3c-4.3,4.4-11.2,6.5-17.3,6.5
					c-13.9,0-22.2-8.6-22.2-21.5c0-12.3,8.3-21.1,21.4-21.1c13.5,0,21.9,8.3,20.4,24.9H348.2z M370.1,71.2
					c-0.7-5.2-4.7-7.9-10.5-7.9c-5.4,0-9.8,2.6-11.3,7.9H370.1z"/>
				<path class="st4" d="M419.4,55.8h9.6v40.3h-9.4l-0.5-5.9c-2.3,4.7-8.6,7-13.1,7.1c-11.9,0.1-20.8-7.3-20.8-21.4
					c0-13.9,9.2-21.2,21-21.1c5.4,0,10.6,2.5,12.8,6.5L419.4,55.8z M395.2,75.9c0,7.7,5.3,12.3,11.9,12.3c15.7,0,15.7-24.5,0-24.5
					C400.5,63.7,395.2,68.2,395.2,75.9z"/>
				<path class="st4" d="M447.3,38.9v57.2h-9.9V38.9H447.3z"/>
				<path class="st4" d="M482.4,66.5c-2.9-2.7-6.1-3.6-10-3.6c-4.7,0-7.4,1.5-7.4,4c0,2.6,2.4,4.1,7.5,4.4
					c7.6,0.5,17.3,2.2,17.3,12.9c0,7.1-5.8,13.3-17.3,13.3c-6.4,0-12.8-1.1-18.6-7.2l4.9-7.1c2.9,3.2,9.4,5.6,13.9,5.6
					c3.8,0.1,7.3-1.9,7.3-4.8c0-2.8-2.3-3.9-8-4.3c-7.6-0.6-16.7-3.4-16.7-12.5c0-9.3,9.7-12.6,17-12.6c6.3,0,11,1.2,15.7,5.3
					L482.4,66.5z"/>
				<path class="st3" d="M525.9,96.1V75c0-6.1-3.4-10.8-9.7-10.8c-6.1,0-10.3,5.2-10.3,11.3v20.6h-9.9V55.7h8.9l0.7,5.5
					c4.1-4,8.2-6.1,13.3-6.1c9.5,0,17.1,7.1,17.1,19.8v21.2H525.9z"/>
				<path class="st3" d="M584.5,76c0,11.6-7.9,21-21,21s-20.9-9.4-20.9-21c0-11.5,8-21,20.9-21C576.3,54.9,584.5,64.4,584.5,76z
					 M552.6,76c0,6.1,3.7,11.9,11,11.9c7.3,0,11-5.7,11-11.9c0-6.1-4.3-11.9-11-11.9C556.3,64,552.6,69.9,552.6,76z"/>
				<path class="st3" d="M626.7,55.7l8.8,30.3l9.2-30.3h11l-14.1,40.6h-11.6L626,84.3l-3.6-13.5l-3.6,13.5l-4.2,11.9H603l-14.2-40.6
					H600l9.2,30.3l8.8-30.3H626.7z"/>
			</g>
			<g>
				<path class="st3" d="M576.9,46.4c0,3.9-5.9,3.9-5.9,0C571,42.5,576.9,42.5,576.9,46.4z"/>
				<path class="st3" d="M597.9,46.4c-2.3,2.3-4.8,3.2-7.8,3.2c-5.9,0-10.8-3.5-10.8-10.7c0-7.2,4.9-10.7,10.8-10.7
					c2.9,0,5.1,0.8,7.3,3l-3.2,3.3c-1.2-1.1-2.7-1.6-4.1-1.6c-3.4,0-5.8,2.5-5.8,6c0,3.9,2.6,5.9,5.8,5.9c1.6,0,3.2-0.5,4.4-1.7
					L597.9,46.4z"/>
				<path class="st3" d="M620.7,38.9c0,5.8-4,10.6-10.6,10.6c-6.6,0-10.5-4.7-10.5-10.6c0-5.8,4-10.6,10.5-10.6
					C616.5,28.3,620.7,33.1,620.7,38.9z M604.6,38.9c0,3.1,1.9,6,5.5,6c3.7,0,5.5-2.9,5.5-6c0-3-2.1-6-5.5-6
					C606.5,32.9,604.6,35.9,604.6,38.9z"/>
				<path class="st3" d="M637.6,49V38.2c0-2.7-1.4-5.1-4.2-5.1c-2.7,0-4.3,2.4-4.3,5.1V49h-5V28.7h4.6l0.4,2.5
					c1.1-2.1,3.4-2.8,5.3-2.8c2.4,0,4.9,1,6,3.8c1.8-2.9,4.2-3.7,6.8-3.7c5.8,0,8.6,3.5,8.6,9.6V49h-5V38.1c0-2.7-1.1-4.9-3.8-4.9
					c-2.7,0-4.4,2.3-4.4,5V49H637.6z"/>
			</g>
		</g>
		<g>
			<g>
				<g>
					<circle class="st4" cx="114" cy="117.9" r="8.1"/>
				</g>
				<g>
					<circle class="st4" cx="86.2" cy="117.9" r="8.1"/>
				</g>
			</g>
			<g>
				<g>
					<rect x="87.2" y="73.6" class="st4" width="10.4" height="10.4"/>
				</g>
				<g>
					<rect x="102.5" y="73.6" class="st4" width="10.4" height="10.4"/>
				</g>
				<g>
					<rect x="87.2" y="58.8" class="st4" width="10.4" height="10.4"/>
				</g>
				<g>
					<rect x="102.5" y="58.8" class="st4" width="10.4" height="10.4"/>
				</g>
			</g>
			<path class="st3" d="M134.7,45.8L111,27.2c-4.7-3.7-11.4-3.7-16.1,0L71.8,45.3l3.1,12l27-21.1c0.6-0.5,1.5-0.5,2.1,0l23.8,18.6
				c0.4,0.3,0.7,0.8,0.7,1.4v34c0,1-0.8,1.7-1.7,1.7H75.1c-0.8,0-1.5-0.5-1.7-1.3L58.7,33.1c-1.6-6.3-7.3-10.7-13.7-10.7H23.1v11.3
				h21.8c1.3,0,2.4,0.9,2.8,2.1l14.7,57.4c1.5,5.8,6.7,9.8,12.6,9.8h51.6c7.2,0,13-5.9,13-13v-34C139.7,52,137.9,48.3,134.7,45.8z"
				/>
		</g>
	</g>
</g>
</svg>
