<?xml version="1.0" encoding="iso-8859-1"?>
<!-- Generator: Adobe Illustrator 19.0.0, SVG Export Plug-In . SVG Version: 6.00 Build 0)  -->
<svg version="1.1" id="Layer_1" xmlns="http://www.w3.org/2000/svg" xmlns:xlink="http://www.w3.org/1999/xlink" x="0px" y="0px"
	 viewBox="0 0 512 512" style="enable-background:new 0 0 512 512;" xml:space="preserve">
<polygon style="fill:#FFBE00;" points="235.085,439.888 304.236,460.803 512,460.803 512,245.22 235.085,224.305 "/>
<polygon style="fill:#FFE074;" points="0,245.22 0,460.803 207.764,460.803 256,439.888 256,245.22 "/>
<polygon style="fill:#FC2B32;" points="350.298,51.197 256,51.197 235.085,154.645 256,245.22 512,245.22 512,245.22 512,204.259 
	"/>
<polygon style="fill:#FF5D65;" points="256,51.197 161.702,51.197 0,204.259 0,245.22 0,245.22 256,245.22 "/>
<polygon style="fill:#D14901;" points="256,460.803 304.236,460.803 304.236,299.118 256,299.118 235.085,384.386 "/>
<polygon style="fill:#0089D3;" points="452.712,299.118 404.477,299.118 383.562,353.011 404.477,401.523 452.712,401.523 "/>
<rect x="356.237" y="299.112" style="fill:#63C8EE;" width="48.232" height="102.4"/>
<polygon style="fill:#0089D3;" points="107.523,401.523 155.759,401.523 155.759,299.118 107.523,299.118 86.608,350.32 "/>
<rect x="59.288" y="299.112" style="fill:#63C8EE;" width="48.232" height="102.4"/>
<rect x="207.768" y="299.112" style="fill:#F37A23;" width="48.232" height="161.688"/>
<g>
</g>
<g>
</g>
<g>
</g>
<g>
</g>
<g>
</g>
<g>
</g>
<g>
</g>
<g>
</g>
<g>
</g>
<g>
</g>
<g>
</g>
<g>
</g>
<g>
</g>
<g>
</g>
<g>
</g>
</svg>
