<?xml version="1.0" encoding="iso-8859-1"?>
<!-- Generator: Adobe Illustrator 18.1.1, SVG Export Plug-In . SVG Version: 6.00 Build 0)  -->
<svg version="1.1" id="Capa_1" xmlns="http://www.w3.org/2000/svg" xmlns:xlink="http://www.w3.org/1999/xlink" x="0px" y="0px"
	 viewBox="0 0 494.747 494.747" style="enable-background:new 0 0 494.747 494.747;" xml:space="preserve">
<g>
	<path style="fill:#010002;" d="M484.837,240.948l-190.03-140.145c-8.657-6.381-20.451-6.34-29.068,0.089L78.091,241.037
		c-10.795,8.055-13.006,23.337-4.95,34.124c8.064,10.787,23.337,13.006,34.132,4.942l25.158-18.785V450.6
		c0,13.469,10.917,24.386,24.386,24.386h247.036c13.469,0,24.386-10.917,24.386-24.386V259.798l27.645,20.386
		c4.357,3.219,9.429,4.763,14.453,4.763c7.478,0,14.867-3.43,19.647-9.917C497.981,264.204,495.672,248.938,484.837,240.948z
		 M379.466,232.063v194.151H181.202V232.063c0-2.243-0.398-4.381-0.967-6.446l100.193-74.824l100.282,73.954
		C379.97,227.073,379.466,229.495,379.466,232.063z"/>
	<path style="fill:#010002;" d="M446.194,89.911c6.739,0,12.193-5.462,12.193-12.193V31.954c0-6.73-5.454-12.193-12.193-12.193
		h-341.14c-6.739,0-12.193,5.462-12.193,12.193v45.764c0,6.73,5.454,12.193,12.193,12.193c6.739,0,12.193-5.462,12.193-12.193
		V44.147h31.433V58.9c0,4.495,3.642,8.129,8.129,8.129s8.129-3.633,8.129-8.129V44.147h30.783V58.9c0,4.495,3.642,8.129,8.129,8.129
		s8.129-3.633,8.129-8.129V44.147h30.783V58.9c0,4.495,3.642,8.129,8.129,8.129s8.129-3.633,8.129-8.129V44.147H289.8V58.9
		c0,4.495,3.642,8.129,8.129,8.129s8.129-3.633,8.129-8.129V44.147h30.791V58.9c0,4.495,3.642,8.129,8.129,8.129
		c4.487,0,8.129-3.633,8.129-8.129V44.147h30.783V58.9c0,4.495,3.642,8.129,8.129,8.129s8.129-3.633,8.129-8.129V44.147h33.856
		v33.571C434.001,84.449,439.463,89.911,446.194,89.911z"/>
	<path style="fill:#010002;" d="M70.15,460.037c0-6.73-5.454-12.193-12.193-12.193H24.386v-31.433h14.753
		c4.487,0,8.129-3.633,8.129-8.129s-3.642-8.129-8.129-8.129H24.386v-30.783h14.753c4.487,0,8.129-3.633,8.129-8.129
		c0-4.495-3.642-8.129-8.129-8.129H24.386v-30.783h14.753c4.487,0,8.129-3.633,8.129-8.129s-3.642-8.129-8.129-8.129H24.386v-30.783
		h14.753c4.487,0,8.129-3.633,8.129-8.129c0-4.495-3.642-8.129-8.129-8.129H24.386v-30.783h14.753c4.487,0,8.129-3.633,8.129-8.129
		s-3.642-8.129-8.129-8.129H24.386v-30.783h14.753c4.487,0,8.129-3.633,8.129-8.129c0-4.495-3.642-8.129-8.129-8.129H24.386v-33.856
		h33.571c6.739,0,12.193-5.462,12.193-12.193s-5.454-12.193-12.193-12.193H12.193C5.454,106.713,0,112.175,0,118.906v341.14
		c0,6.73,5.454,12.193,12.193,12.193h45.764C64.695,472.23,70.15,466.768,70.15,460.037z"/>
</g>
<g>
</g>
<g>
</g>
<g>
</g>
<g>
</g>
<g>
</g>
<g>
</g>
<g>
</g>
<g>
</g>
<g>
</g>
<g>
</g>
<g>
</g>
<g>
</g>
<g>
</g>
<g>
</g>
<g>
</g>
</svg>
